<svg xmlns="http://www.w3.org/2000/svg" xmlns:xlink="http://www.w3.org/1999/xlink" width="24" height="24" viewBox="0 0 24 24">
    <defs>
        <path id="prefix__b" d="M12 0c6.628 0 12 5.373 12 12s-5.372 12-12 12S0 18.627 0 12 5.372 0 12 0zm0 1.333C6.118 1.333 1.333 6.118 1.333 12S6.118 22.667 12 22.667 22.667 17.882 22.667 12 17.882 1.333 12 1.333z"/>
        <path id="prefix__c" d="M7 .333c3.675 0 6.667 2.991 6.667 6.667 0 3.676-2.992 6.667-6.667 6.667C3.324 13.667.333 10.677.333 7 .333 3.324 3.324.333 7 .333zm.092 1.335c-.05.037-.089.063-.14.1L6.59 2.862c-.02.061-.067.108-.126.127l-.53.177-.562.936c-.017.03-.04.052-.069.07l-1 .6-.074.026-1.228.175v.344l.341.341c.038.038.06.09.06.142v.317l.26-.259c.044-.046.108-.066.172-.055.063.01.118.05.147.107l.343.69H5.6c.071 0 .136.037.172.097l.541.902H7c.013 0 .026.002.04.004.107.023.177.127.156.236l-.2 1c-.008.04-.027.075-.055.102l-.74.741v.518c0 .063-.03.122-.08.16l-.72.54v.9c0 .11-.09.2-.2.2-.022 0-.043-.004-.063-.01l-.054-.017.255.09c.436.144.896.236 1.373.262l.288.008c1.755 0 3.31-.856 4.282-2.167l-.225-.225c-.037-.037-.058-.089-.058-.14v-.754l-.778-1.553-.02-.094v-.693l-.439-.292-.714.18c-.042.01-.086.005-.126-.01l-1.4-.602c-.064-.027-.11-.087-.12-.156l-.2-1.398c-.009-.063.013-.126.056-.17l.6-.6c.038-.038.09-.06.142-.06h1.2c.065 0 .128.035.165.09l.351.528 1.066.177.721-.24c-.167-.264-.357-.51-.567-.739l-.226.151c-.044.03-.099.04-.15.03l-1-.2-.024-.007-.545-.18-.743.184c-.037.01-.076.008-.113-.004l-.599-.2-.027-.01c-.098-.049-.138-.169-.089-.269l.482-.975c.043-.086-.009-.19-.104-.206-.23-.035-.466-.057-.706-.06zM1.8 5.83c-.085.377-.133.77-.133 1.171 0 2.001 1.108 3.746 2.742 4.658l-.393-.984c-.01-.024-.014-.049-.014-.075V8.764l-.84-.168c-.06-.012-.113-.05-.14-.107l-.4-.8c-.014-.028-.02-.058-.02-.09V7c0-.053.02-.104.058-.142l.227-.227-.997-.664c-.037-.026-.064-.062-.079-.104l-.01-.034z"/>
        <filter id="prefix__a" width="108.6%" height="108%" x="-4.3%" y="-4%" filterUnits="objectBoundingBox">
            <feOffset dy="2" in="SourceAlpha" result="shadowOffsetOuter1"/>
            <feGaussianBlur in="shadowOffsetOuter1" result="shadowBlurOuter1" stdDeviation="2"/>
            <feColorMatrix in="shadowBlurOuter1" result="shadowMatrixOuter1" values="0 0 0 0 0 0 0 0 0 0 0 0 0 0 0 0 0 0 0.5 0"/>
            <feMerge>
                <feMergeNode in="shadowMatrixOuter1"/>
                <feMergeNode in="SourceGraphic"/>
            </feMerge>
        </filter>
    </defs>
    <g fill="none" fill-rule="evenodd" filter="url(#prefix__a)" transform="translate(-16 -163)">
        <g transform="translate(16 163)">
            <use fill="#FFF" xlink:href="#prefix__b"/>
            <g transform="translate(5 5)">
                <use fill="#FFF" xlink:href="#prefix__c"/>
            </g>
        </g>
    </g>
</svg>
